<svg width="22" height="22" viewBox="0 0 203 204" fill="none" xmlns="http://www.w3.org/2000/svg">
<path d="M123.508 102.389V124.889H101.11C95.1586 124.871 89.4577 122.492 85.2604 118.273C81.0631 114.054 78.713 108.34 78.7265 102.389C78.7092 96.4278 81.0585 90.7033 85.2585 86.4726C88.3906 83.3239 92.3891 81.1788 96.7447 80.3106C101.1 79.4424 105.616 79.8904 109.716 81.5975C113.816 83.3046 117.315 86.1936 119.767 89.8963C122.219 93.5991 123.514 97.9481 123.486 102.389H123.508Z" fill="#A30041"/>
<path d="M139.657 0.778809H62.5777C45.9413 0.821106 30.0028 7.46951 18.2676 19.2618C6.53247 31.0542 -0.0384006 47.0248 0.000145751 63.6612V141.118C-0.0364755 157.753 6.53502 173.723 18.2698 185.515C30.0045 197.307 45.9419 203.956 62.5777 204H202.227V63.6612C202.267 47.0255 195.698 31.0548 183.964 19.2623C172.23 7.46974 156.292 0.821104 139.657 0.778809ZM157.801 159.328H101.117C86.0553 159.287 71.6262 153.266 61.003 142.589C50.3799 131.911 44.4327 117.451 44.4693 102.389C44.444 90.6694 48.0393 79.2276 54.7636 69.6284C61.4878 60.0292 71.0128 52.7412 82.0362 48.7608V31.7337C82.0353 31.471 82.1128 31.2139 82.2588 30.9954C82.4048 30.7768 82.6126 30.6068 82.8557 30.5071C83.0989 30.4074 83.3662 30.3824 83.6236 30.4354C83.881 30.4884 84.1167 30.617 84.3006 30.8047L93.3948 40.0876C93.5285 40.2238 93.6901 40.3293 93.8684 40.3971C94.0468 40.4648 94.2378 40.4931 94.4282 40.48C94.6185 40.4669 94.8038 40.4127 94.9712 40.3212C95.1386 40.2296 95.2842 40.1029 95.398 39.9497L100.065 33.6861C100.188 33.521 100.348 33.3868 100.532 33.2944C100.716 33.202 100.919 33.1539 101.124 33.1539C101.33 33.1539 101.533 33.202 101.717 33.2944C101.901 33.3868 102.061 33.521 102.184 33.6861L106.858 39.9497C106.971 40.1039 107.116 40.2317 107.284 40.3239C107.451 40.4162 107.637 40.4708 107.828 40.484C108.018 40.4971 108.21 40.4684 108.388 40.4C108.567 40.3315 108.728 40.2249 108.861 40.0876L117.963 30.8047C118.147 30.617 118.382 30.4884 118.64 30.4354C118.897 30.3824 119.165 30.4074 119.408 30.5071C119.651 30.6068 119.859 30.7768 120.005 30.9954C120.151 31.2139 120.228 31.471 120.227 31.7337V48.7608C131.247 52.746 140.768 60.0355 147.49 69.6337C154.213 79.232 157.808 90.6712 157.787 102.389L157.801 159.328Z" fill="#A30041"/>
</svg>
