<svg width="934" height="934" viewBox="0 0 934 934" fill="none" xmlns="http://www.w3.org/2000/svg">
<rect y="184" width="906" height="584" fill="#FAFF00"/>
<path d="M160 1.46664C85.4667 7.33331 22.8 61.6 5.2 135.467C2 149.2 0 172.4 0 198.933V220H360.4C758.267 220 728.4 219.333 740.133 228.4C744.667 231.867 757.6 252 810.8 338.667C846.667 396.933 876.933 447.333 878 450.533C882 462.533 879.6 477.2 871.733 488.267C864.4 498.4 691.067 698.133 684.533 703.867C681.067 706.8 675.067 710.533 670.8 712.133L663.333 714.933L331.733 714.667L0 714.533V734.4C0 785.067 6.26667 814.667 23.6 844.667C52.9333 895.867 103.467 927.467 163.2 932C186.933 933.867 746.4 933.867 770.133 932C829.867 927.467 880.267 896 909.733 844.667C922.8 821.867 929.867 798 932.133 768.8C933.067 756.133 933.333 653.467 932.933 452.667C932.533 180 932.267 154.4 930.267 144.4C922.533 106.933 907.2 77.8666 881.333 52C860.933 31.6 840.4 18.8 814.667 10.1333C784.533 0.133309 812.8 0.799976 476 0.533309C309.867 0.399976 167.733 0.799976 160 1.46664Z" fill="#00C0C9"/>
<path d="M296.267 354C281.467 357.333 266.667 363.6 252.4 372.8C244.4 377.867 244.4 377.867 246.533 364.933L247.6 358.667H219.467H191.333L178.267 463.6C171.067 521.467 165.2 569.733 165.333 571.067C165.333 573.2 167.333 573.333 194.933 573.067L224.667 572.667L234.267 495.333C239.467 452.8 243.867 417.333 243.867 416.667C244 414.8 258.933 406.4 268.4 402.8C278.533 399.067 291.067 399.067 296.933 402.667C303.467 406.533 306.667 414.133 306.667 425.467C306.667 430.667 303.067 464.4 298.667 500.267C294.267 536.267 290.667 567.467 290.667 569.467V573.333L320.267 573.067L349.867 572.667L359.467 494.8C370.4 405.333 367.333 415.467 386.667 406.133C396.267 401.467 399.467 400.667 408 400.267C420 399.733 425.067 402.267 429.333 410.533C433.467 418.667 432.8 427.733 424 500.533C419.6 536.667 416 567.867 416 569.867V573.333L445.6 573.067L475.333 572.667L484.933 494.667C492.533 433.467 494.533 414.133 494.133 404.667C492.667 372.933 474.667 354.533 443.333 352.4C421.6 351.067 396.933 359.733 367.867 379.067L364.533 381.333L359.867 374.4C350.8 360.533 336.8 353.467 316.667 352.533C309.067 352.267 301.6 352.8 296.267 354Z" fill="#15545D"/>
<path d="M623.333 352.8C590.667 356.667 570.133 365.2 551.733 382.4C535.333 397.733 524.933 416.933 519.2 442C515.733 456.933 515.733 490.4 519.067 502.667C528.667 537.333 556.4 563.6 594 573.467C607.6 577.067 643.067 578.533 658.533 576C677.733 572.933 704.533 562.533 705.867 557.467C706.933 553.6 709.733 510.667 709.067 509.867C708.667 509.467 704.667 510.933 700.133 513.2C683.2 521.733 653.333 527.733 636.133 526C618.667 524.267 604.133 518.533 594.133 509.2C588.8 504.4 581.467 492.667 579.333 485.6L578.533 482.667H651.733C715.2 482.667 725.2 482.4 725.867 480.667C727.867 475.333 729.6 454 728.933 443.067C725.467 390.4 697.2 358.933 648.267 353.333C636.933 352 631.333 352 623.333 352.8ZM646.4 403.2C654.133 406 659.733 410.4 663.6 416.933C666.933 422.8 669.733 437.067 668.4 442.267L667.733 445.333H623.333H578.933L580.267 440.267C585.067 423.067 597.6 409.067 613.467 403.467C621.067 400.933 639.333 400.667 646.4 403.2Z" fill="#15545D"/>
</svg>
