<svg width="22" height="22" viewBox="0 0 22 22" fill="none" xmlns="http://www.w3.org/2000/svg">
<path d="M21.9996 11.0056C21.9996 17.0782 17.0756 21.9996 10.9998 21.9996C4.92983 21.9996 0 17.0763 0 11.0056C0 4.92329 4.92983 0 10.9998 0C17.0756 0 21.9996 4.92329 21.9996 11.0056ZM12.2611 3.82408C11.8496 3.78551 11.4266 3.77009 10.9979 3.77009C10.5749 3.77009 10.1519 3.78745 9.74042 3.82408V9.69231H12.2592V3.82408H12.2611ZM18.085 7.24512C17.1967 6.95394 16.2565 6.71095 15.274 6.53546V11.4626C15.274 15.0109 13.7704 16.8738 10.9979 16.8738C8.23687 16.8738 6.72756 15.009 6.72756 11.4626V6.53546C5.74503 6.71095 4.80678 6.95394 3.91655 7.24512V11.4915C3.91655 15.3908 7.08901 18.5747 10.9979 18.5747C14.9106 18.5747 18.083 15.3908 18.083 11.4915V7.24512H18.085Z" fill="#7000FF"/>
</svg>
